<svg width="18" height="18" viewBox="0 0 18 18" fill="none" xmlns="http://www.w3.org/2000/svg">
<path d="M12.612 0.666992C15.4485 0.666992 17.3337 2.69158 17.3337 5.59699V12.4037C17.3337 15.3092 15.4483 17.3337 12.6112 17.3337H5.38783C2.55147 17.3337 0.666992 15.3092 0.666992 12.4037V5.59699C0.666992 2.69416 2.55651 0.666992 5.38783 0.666992H12.612ZM12.612 1.91699H5.38783C3.26727 1.91699 1.91699 3.36564 1.91699 5.59699V12.4037C1.91699 14.6381 3.26263 16.0837 5.38783 16.0837H12.6112C14.7373 16.0837 16.0837 14.638 16.0837 12.4037V5.59699C16.0837 3.3628 14.7374 1.91699 12.612 1.91699ZM6.36691 6.83199C7.3471 6.83199 8.17549 7.48279 8.44381 8.37553L10.8053 8.37503C10.8095 8.37495 10.8138 8.37491 10.818 8.37491L10.8295 8.37533H13.1752C13.4917 8.37533 13.7532 8.61045 13.7945 8.91552L13.8002 9.00033V10.5437C13.8002 10.8888 13.5204 11.1687 13.1752 11.1687C12.8588 11.1687 12.5973 10.9335 12.5559 10.6285L12.5502 10.5437L12.55 9.62516L11.4428 9.62449L11.443 10.5432C11.443 10.8884 11.1632 11.1682 10.818 11.1682C10.5016 11.1682 10.2401 10.9331 10.1987 10.628L10.193 10.5432L10.1928 9.62533L8.44357 9.62595C8.18761 10.4763 7.42341 11.107 6.50403 11.1644L6.36691 11.1687C5.17012 11.1687 4.19941 10.1972 4.19941 9.00033C4.19941 7.80343 5.17012 6.83199 6.36691 6.83199ZM6.36691 8.08199C5.86068 8.08199 5.44941 8.49357 5.44941 9.00033C5.44941 9.50708 5.86068 9.91866 6.36691 9.91866C6.87389 9.91866 7.28524 9.50715 7.28524 9.00033C7.28524 8.4935 6.87389 8.08199 6.36691 8.08199Z" fill="#9CA3AF"/>
</svg>
