<svg width="40" height="40" viewBox="0 0 40 40" fill="none" xmlns="http://www.w3.org/2000/svg">
<path d="M17.1348 28.7733V25.7156C17.1348 24.9351 17.7722 24.3023 18.5584 24.3023H21.4326C21.8102 24.3023 22.1723 24.4512 22.4393 24.7163C22.7063 24.9813 22.8563 25.3408 22.8563 25.7156V28.7733C22.8539 29.0978 22.9821 29.4099 23.2124 29.6402C23.4427 29.8705 23.7561 30 24.0829 30H26.0438C26.9596 30.0023 27.8388 29.6428 28.4872 29.0008C29.1356 28.3588 29.5 27.487 29.5 26.5778V17.8669C29.5 17.1325 29.1721 16.4358 28.6046 15.9647L21.934 10.6759C20.7737 9.74856 19.1111 9.7785 17.9854 10.747L11.467 15.9647C10.8727 16.422 10.5176 17.1206 10.5 17.8669V26.5689C10.5 28.4639 12.0474 30 13.9562 30H15.8723C16.5512 30 17.103 29.4562 17.1079 28.7822L17.1348 28.7733Z" fill="#D1D5DB"/>
</svg>
