<svg width="156" height="116" viewBox="0 0 156 116" fill="none" xmlns="http://www.w3.org/2000/svg">
<g filter="url(#filter0_d_1868_13805)">
<rect x="24" y="14" width="94" height="40" rx="12" fill="#F3F4F6"/>
<path d="M73.0516 28.4576V29.9749C73.1521 29.8433 73.2944 29.683 73.4786 29.4938C73.6628 29.2964 74.0646 29.0333 74.6842 28.7043C75.3121 28.3753 75.9693 28.2109 76.6558 28.2109C78.0958 28.2109 79.2679 28.7002 80.1721 29.6789C81.0846 30.6575 81.5409 31.9775 81.5409 33.6388V40.8431H78.0749V34.0212C78.0749 33.2646 77.8446 32.656 77.3842 32.1954C76.9321 31.7267 76.346 31.4923 75.626 31.4923C74.8391 31.4923 74.2111 31.7472 73.7423 32.2571C73.2818 32.7588 73.0516 33.4743 73.0516 34.4036V40.8431H69.5856V28.4576H73.0516Z" fill="#1C2431"/>
<path d="M59.5391 31.4923V28.4576H49.254V31.4923H55.1688L49.0028 37.8084V40.8431H59.8028V37.8084H53.373L59.5391 31.4923Z" fill="#1C2431"/>
<path d="M66.107 40.8431V28.4576H62.934V40.8431H66.107Z" fill="#1C2431"/>
<path d="M91.826 32.1214L93.6218 30.1106L93.1823 29.6295C92.8976 29.3252 92.3869 29.0127 91.6502 28.692C90.9218 28.3712 90.1223 28.2109 89.2516 28.2109C87.8786 28.2109 86.719 28.6138 85.773 29.4198C84.8353 30.2258 84.3665 31.1263 84.3665 32.1214C84.3665 32.8862 84.5632 33.5195 84.9567 34.0212C85.3502 34.5228 85.8274 34.8929 86.3883 35.1314C86.9576 35.3699 87.5311 35.5755 88.1088 35.7482C88.6865 35.9127 89.1721 36.1101 89.5655 36.3404C89.959 36.5624 90.1558 36.842 90.1558 37.1792C90.1558 37.5164 90.0135 37.7919 89.7288 38.0057C89.4525 38.2113 89.0381 38.3141 88.4855 38.3141C87.9832 38.3141 87.4976 38.1867 87.0288 37.9317C86.56 37.6686 86.2502 37.463 86.0995 37.3149C85.9572 37.1587 85.8525 37.0312 85.7856 36.9325L83.8516 38.8199L84.0274 39.079C84.153 39.227 84.3539 39.4121 84.6302 39.6341C84.9149 39.8479 85.2456 40.0659 85.6223 40.2879C85.999 40.51 86.4888 40.6991 87.0916 40.8554C87.6944 41.0116 88.3307 41.0898 89.0004 41.0898C89.2764 41.0898 89.5418 41.078 89.7967 41.0545L88.653 42.7804L90.8865 44L92.9953 39.682C93.6798 38.9881 94.0111 38.1497 94.0111 37.1792C94.0111 36.4062 93.8144 35.7606 93.4209 35.2424C93.0274 34.7161 92.5418 34.3378 91.9641 34.1075C91.3865 33.869 90.813 33.6675 90.2437 33.5031C89.6828 33.3303 89.2055 33.1371 88.8121 32.9233C88.4186 32.7094 88.2218 32.4421 88.2218 32.1214C88.2218 31.8582 88.36 31.628 88.6362 31.4306C88.9125 31.225 89.2893 31.1222 89.7665 31.1222C90.1432 31.1222 90.5116 31.2168 90.8716 31.4059C91.2316 31.5868 91.466 31.7349 91.5748 31.85C91.6921 31.9652 91.7758 32.0556 91.826 32.1214Z" fill="#1C2431"/>
<path fill-rule="evenodd" clip-rule="evenodd" d="M108.541 35.7852H99.4111C99.5451 36.4596 99.9093 37.0312 100.504 37.5C101.098 37.9605 101.847 38.1908 102.752 38.1908C103.405 38.1908 104.007 38.0674 104.56 37.8207C105.121 37.5658 105.514 37.3108 105.74 37.0559L106.105 36.6734L107.9 38.9433L107.674 39.1653C107.566 39.2722 107.339 39.4491 106.996 39.6958C106.653 39.9425 106.289 40.1646 105.904 40.3619C105.519 40.5511 105.016 40.7197 104.397 40.8677C103.786 41.0158 103.153 41.0898 102.5 41.0898C100.65 41.0898 99.072 40.4606 97.766 39.2023C96.46 37.9358 95.8069 36.4185 95.8069 34.6503C95.8069 32.8821 96.4516 31.3689 97.7409 30.1106C99.0302 28.8441 100.575 28.2109 102.375 28.2109C104.175 28.2109 105.673 28.803 106.871 29.9873C108.068 31.1633 108.666 32.6354 108.666 34.4036L108.541 35.7852ZM104.233 31.7637C103.731 31.336 103.112 31.1222 102.375 31.1222C101.638 31.1222 101.01 31.3319 100.491 31.7513C99.9804 32.1708 99.6204 32.7177 99.4111 33.392H105.2C105.066 32.7341 104.744 32.1913 104.233 31.7637Z" fill="#1C2431"/>
<path d="M64.5414 27.158C65.4292 27.158 66.1488 26.4511 66.1488 25.579C66.1488 24.707 65.4292 24 64.5414 24C63.6536 24 62.934 24.707 62.934 25.579C62.934 26.4511 63.6536 27.158 64.5414 27.158Z" fill="#1C2431"/>
<path fill-rule="evenodd" clip-rule="evenodd" d="M40.4298 40.8429C43.9808 40.8429 46.8595 38.0151 46.8595 34.5268C46.8595 31.0385 43.9808 28.2107 40.4298 28.2107C36.8787 28.2107 34 31.0385 34 34.5268C34 38.0151 36.8787 40.8429 40.4298 40.8429ZM38.6455 37.6499L43.5418 34.7005C43.5734 34.6814 43.5994 34.6556 43.6173 34.6253C43.6353 34.595 43.6446 34.5612 43.6446 34.5268C43.6446 34.4925 43.6353 34.4586 43.6173 34.4284C43.5994 34.3981 43.5734 34.3722 43.5418 34.3532L38.6455 31.4037C38.6107 31.3828 38.5703 31.3708 38.5285 31.369C38.4868 31.3672 38.4453 31.3757 38.4085 31.3935C38.3716 31.4113 38.3408 31.4378 38.3194 31.4702C38.2979 31.5026 38.2865 31.5396 38.2865 31.5774V37.4763C38.2865 37.514 38.2979 37.5511 38.3194 37.5834C38.3408 37.6158 38.3716 37.6423 38.4085 37.6602C38.4453 37.678 38.4868 37.6864 38.5285 37.6846C38.5703 37.6828 38.6107 37.6708 38.6455 37.6499Z" fill="#7E2DFC"/>
<path d="M37.7507 27.158C38.6385 27.158 39.3581 26.4511 39.3581 25.579C39.3581 24.707 38.6385 24 37.7507 24C36.8629 24 36.1433 24.707 36.1433 25.579C36.1433 26.4511 36.8629 27.158 37.7507 27.158Z" fill="#7E2DFC"/>
<path d="M44.7163 25.579C44.7163 26.4511 43.9966 27.158 43.1088 27.158C42.2211 27.158 41.5014 26.4511 41.5014 25.579C41.5014 24.707 42.2211 24 43.1088 24C43.9966 24 44.7163 24.707 44.7163 25.579Z" fill="#7E2DFC"/>
</g>
<defs>
<filter id="filter0_d_1868_13805" x="-14" y="0" width="170" height="116" filterUnits="userSpaceOnUse" color-interpolation-filters="sRGB">
<feFlood flood-opacity="0" result="BackgroundImageFix"/>
<feColorMatrix in="SourceAlpha" type="matrix" values="0 0 0 0 0 0 0 0 0 0 0 0 0 0 0 0 0 0 127 0" result="hardAlpha"/>
<feMorphology radius="6" operator="dilate" in="SourceAlpha" result="effect1_dropShadow_1868_13805"/>
<feOffset dy="24"/>
<feGaussianBlur stdDeviation="16"/>
<feColorMatrix type="matrix" values="0 0 0 0 0.321569 0 0 0 0 0.321569 0 0 0 0 0.596078 0 0 0 0.06 0"/>
<feBlend mode="normal" in2="BackgroundImageFix" result="effect1_dropShadow_1868_13805"/>
<feBlend mode="normal" in="SourceGraphic" in2="effect1_dropShadow_1868_13805" result="shape"/>
</filter>
</defs>
</svg>
