<svg width="17" height="16" viewBox="0 0 17 16" fill="none" xmlns="http://www.w3.org/2000/svg">
<path d="M11.5789 0C11.6161 0 11.6534 0 11.6927 0C11.784 1.12835 11.3533 1.97146 10.8299 2.582C10.3163 3.18834 9.61304 3.7764 8.47555 3.68717C8.39967 2.57498 8.83106 1.79441 9.35379 1.18526C9.83857 0.617573 10.7273 0.112414 11.5789 0Z" fill="#9CA3AF"/>
<path d="M15.0223 11.7446C15.0223 11.7558 15.0223 11.7657 15.0223 11.7762C14.7026 12.7444 14.2467 13.5741 13.6902 14.3442C13.1822 15.0432 12.5597 15.984 11.4483 15.984C10.4878 15.984 9.84987 15.3664 8.86554 15.3496C7.82431 15.3327 7.2517 15.866 6.2997 16.0001C6.1908 16.0001 6.0819 16.0001 5.9751 16.0001C5.27603 15.899 4.71185 15.3453 4.30084 14.8465C3.08888 13.3725 2.15233 11.4685 1.97809 9.03189C1.97809 8.79302 1.97809 8.55484 1.97809 8.31596C2.05186 6.57214 2.89918 5.15432 4.02543 4.46719C4.61981 4.10185 5.43692 3.7906 6.34677 3.92971C6.73671 3.99013 7.13507 4.12363 7.48426 4.25571C7.81518 4.38288 8.229 4.60841 8.62104 4.59647C8.88662 4.58874 9.15079 4.45033 9.41848 4.35267C10.2026 4.06953 10.9712 3.74493 11.9843 3.89739C13.2019 4.08147 14.0661 4.62246 14.6001 5.45714C13.5701 6.11265 12.7558 7.10048 12.8949 8.78739C13.0185 10.3197 13.9094 11.2162 15.0223 11.7446Z" fill="#9CA3AF"/>
</svg>
