<svg width="16" height="16" viewBox="0 0 16 16" fill="none" xmlns="http://www.w3.org/2000/svg">
<g clip-path="url(#clip0_29754_2332)">
<path d="M15.9923 8.14946C15.9923 7.49394 15.9379 7.01559 15.82 6.51953H8.1593V9.47819H12.656C12.5654 10.2135 12.0758 11.3208 10.9879 12.0648L10.9726 12.1639L13.3948 13.9973L13.5626 14.0137C15.1038 12.6229 15.9923 10.5766 15.9923 8.14946Z" fill="#4285F4"/>
<path d="M8.1593 15.9455C10.3623 15.9455 12.2117 15.2368 13.5626 14.0144L10.9879 12.0655C10.2989 12.535 9.37411 12.8628 8.1593 12.8628C6.00161 12.8628 4.1703 11.4721 3.51749 9.5498L3.4218 9.55774L0.903177 11.4623L0.870239 11.5518C2.21199 14.1561 4.96805 15.9455 8.1593 15.9455Z" fill="#34A853"/>
<path d="M3.51756 9.54985C3.34531 9.05379 3.24562 8.52225 3.24562 7.97306C3.24562 7.42381 3.34531 6.89232 3.5085 6.39626L3.50394 6.29061L0.95375 4.35547L0.870312 4.39425C0.317313 5.47498 0 6.6886 0 7.97306C0 9.25752 0.317313 10.4711 0.870312 11.5518L3.51756 9.54985Z" fill="#FBBC05"/>
<path d="M8.1593 3.08269C9.69143 3.08269 10.7249 3.72934 11.3142 4.26974L13.617 2.07285C12.2027 0.788397 10.3623 0 8.1593 0C4.96805 0 2.21199 1.78937 0.870239 4.39371L3.50843 6.39573C4.1703 4.47347 6.00161 3.08269 8.1593 3.08269Z" fill="#EB4335"/>
</g>
<defs>
<clipPath id="clip0_29754_2332">
<rect width="16" height="16" fill="white"/>
</clipPath>
</defs>
</svg>
