<svg width="18" height="14" viewBox="0 0 18 14" fill="none" xmlns="http://www.w3.org/2000/svg">
<path fill-rule="evenodd" clip-rule="evenodd" d="M9.24019 0.337024L9.00169 0.333008C5.55092 0.333008 2.44107 2.76891 0.717449 6.75454C0.649766 6.91104 0.649766 7.0883 0.717449 7.24481L0.836886 7.51367C2.53867 11.244 5.47956 13.5533 8.75985 13.6623L8.99835 13.6663C12.4491 13.6663 15.559 11.2304 17.2826 7.24481C17.3511 7.08633 17.3502 6.90667 17.2801 6.74888L17.1641 6.4877C15.4581 2.75044 12.516 0.445896 9.24019 0.337024ZM9.00753 1.5742L9.20665 1.57848L9.42915 1.59006C12.0935 1.77871 14.5438 3.75429 16.0242 6.99894L16.0164 7.01896C14.499 10.3334 11.9641 12.3207 9.21577 12.4205L9.00336 12.4237L8.78914 12.4208L8.5672 12.4093C5.98562 12.2264 3.60534 10.3617 2.11598 7.29943L1.97503 6.99894L2.10551 6.72151C3.67601 3.4773 6.24293 1.5749 9.00753 1.5742ZM8.9996 3.7609C7.19927 3.7609 5.74044 5.21063 5.74044 6.99985C5.74044 8.7884 7.19943 10.238 8.9996 10.238C10.7999 10.238 12.2596 8.78831 12.2596 6.99985C12.2596 5.21073 10.8 3.7609 8.9996 3.7609ZM8.9996 5.00282C10.1097 5.00282 11.0096 5.89668 11.0096 6.99984C11.0096 8.10228 10.1096 8.99603 8.9996 8.99603C7.88978 8.99603 6.99044 8.1025 6.99044 6.99984C6.99044 5.89646 7.88968 5.00282 8.9996 5.00282Z" fill="#9CA3AF"/>
</svg>
