<svg width="40" height="40" viewBox="0 0 40 40" fill="none" xmlns="http://www.w3.org/2000/svg">
<path d="M25.6207 25.6543C26.0072 25.2704 26.6268 25.2704 27.0134 25.6543L29.568 27.7164H29.6124C30.1292 28.2388 30.1292 29.0858 29.6124 29.6082C29.0955 30.1306 28.2576 30.1306 27.7407 29.6082L25.6207 27.1785L25.5403 27.0877C25.3904 26.898 25.3076 26.6615 25.3076 26.4164C25.3076 26.1304 25.4203 25.8562 25.6207 25.6543ZM18.5776 10C20.8526 10 23.0343 10.9134 24.6429 12.5394C26.2516 14.1653 27.1553 16.3705 27.1553 18.6699C27.1553 23.4582 23.3149 27.3399 18.5776 27.3399C13.8403 27.3399 10 23.4582 10 18.6699C10 13.8817 13.8403 10 18.5776 10Z" fill="#D1D5DB"/>
</svg>
