<svg width="114" height="31" viewBox="0 0 114 31" fill="none" xmlns="http://www.w3.org/2000/svg">
<path d="M59.4745 6.90925V9.26113C59.6275 9.05717 59.8443 8.8086 60.1248 8.51541C60.4053 8.20948 61.0173 7.80156 61.9608 7.29167C62.9171 6.78178 63.918 6.52683 64.9636 6.52683C67.1566 6.52683 68.9417 7.2853 70.3188 8.80223C71.7086 10.3192 72.4035 12.3651 72.4035 14.9401V26.1067H67.1248V15.5328C67.1248 14.3601 66.7741 13.4168 66.0729 12.7029C65.3843 11.9763 64.4918 11.613 63.3953 11.613C62.1967 11.613 61.2404 12.0082 60.5264 12.7985C59.8251 13.5761 59.4745 14.6851 59.4745 16.1256V26.1067H54.1958V6.90925H59.4745Z" fill="#F9FAFB"/>
<path d="M38.8953 11.613V6.90925H23.2313V11.613H32.2395L22.8488 21.403V26.1067H39.2969V21.403H29.5046L38.8953 11.613Z" fill="#F9FAFB"/>
<path d="M48.898 26.1067V6.90925H44.0656V26.1067H48.898Z" fill="#F9FAFB"/>
<path d="M88.0674 12.5882L90.8024 9.47146L90.133 8.72574C89.6994 8.25409 88.9217 7.76969 87.7996 7.27255C86.6903 6.7754 85.4727 6.52683 84.1466 6.52683C82.0556 6.52683 80.2896 7.15145 78.8488 8.40069C77.4208 9.64993 76.7067 11.0458 76.7067 12.5882C76.7067 13.7737 77.0064 14.7552 77.6056 15.5328C78.2049 16.3104 78.9317 16.884 79.786 17.2537C80.653 17.6234 81.5264 17.9421 82.4062 18.2098C83.286 18.4647 84.0255 18.7706 84.6248 19.1276C85.224 19.4717 85.5237 19.9051 85.5237 20.4278C85.5237 20.9504 85.3069 21.3775 84.8734 21.7089C84.4526 22.0276 83.8215 22.1869 82.98 22.1869C82.2149 22.1869 81.4754 21.9893 80.7614 21.5942C80.0474 21.1863 79.5756 20.8676 79.3461 20.6381C79.1293 20.3959 78.9699 20.1983 78.8679 20.0454L75.9226 22.9709L76.1903 23.3724C76.3816 23.6019 76.6876 23.8887 77.1084 24.2329C77.5419 24.5643 78.0455 24.9021 78.6193 25.2463C79.1931 25.5905 79.939 25.8836 80.857 26.1258C81.775 26.368 82.7441 26.4891 83.7641 26.4891C84.1843 26.4891 84.5886 26.4709 84.9768 26.4345L83.235 29.1097L86.6366 31L89.8482 24.3072C90.8906 23.2315 91.3953 21.932 91.3953 20.4278C91.3953 19.2295 91.0956 18.2289 90.4964 17.4258C89.8971 16.61 89.1576 16.0236 88.2778 15.6667C87.398 15.297 86.5246 14.9847 85.6576 14.7297C84.8033 14.462 84.0765 14.1625 83.4772 13.831C82.878 13.4996 82.5783 13.0853 82.5783 12.5882C82.5783 12.1803 82.7887 11.8233 83.2095 11.5174C83.6302 11.1987 84.204 11.0394 84.9308 11.0394C85.5045 11.0394 86.0656 11.186 86.6138 11.4792C87.1621 11.7596 87.5191 11.9891 87.6849 12.1675C87.8634 12.346 87.9909 12.4862 88.0674 12.5882Z" fill="#F9FAFB"/>
<path fill-rule="evenodd" clip-rule="evenodd" d="M113.524 18.2671H99.6193C99.8233 19.3124 100.378 20.1983 101.283 20.9249C102.189 21.6388 103.33 21.9957 104.707 21.9957C105.701 21.9957 106.619 21.8045 107.461 21.4221C108.315 21.0269 108.914 20.6317 109.259 20.2366L109.813 19.6438L112.548 23.1621L112.204 23.5063C112.038 23.672 111.694 23.9461 111.171 24.3285C110.648 24.7109 110.094 25.0551 109.507 25.361C108.921 25.6542 108.156 25.9155 107.212 26.145C106.281 26.3744 105.319 26.4891 104.324 26.4891C101.506 26.4891 99.1029 25.514 97.1138 23.5636C95.1248 21.6005 94.1302 19.2487 94.1302 16.508C94.1302 13.7673 95.112 11.4218 97.0756 9.47146C99.0392 7.50837 101.392 6.52683 104.133 6.52683C106.874 6.52683 109.157 7.44464 110.98 9.28025C112.803 11.1031 113.715 13.3849 113.715 16.1256L113.524 18.2671ZM106.964 12.0337C106.199 11.3708 105.255 11.0394 104.133 11.0394C103.011 11.0394 102.055 11.3644 101.264 12.0146C100.486 12.6647 99.9381 13.5124 99.6193 14.5576H108.436C108.232 13.5379 107.741 12.6965 106.964 12.0337Z" fill="#F9FAFB"/>
<path fill-rule="evenodd" clip-rule="evenodd" d="M9.79235 26.1065C15.2005 26.1065 19.5847 21.7234 19.5847 16.3166C19.5847 10.9097 15.2005 6.52663 9.79235 6.52663C4.38418 6.52663 0 10.9097 0 16.3166C0 21.7234 4.38418 26.1065 9.79235 26.1065ZM7.0749 21.1574L14.5319 16.5857C14.5801 16.5562 14.6196 16.5162 14.6469 16.4692C14.6742 16.4223 14.6885 16.3698 14.6885 16.3166C14.6885 16.2633 14.6742 16.2109 14.6469 16.1639C14.6196 16.117 14.5801 16.077 14.5319 16.0474L7.0749 11.4758C7.02192 11.4434 6.96038 11.4248 6.89682 11.422C6.83326 11.4192 6.77007 11.4323 6.71397 11.4599C6.65787 11.4875 6.61097 11.5286 6.57827 11.5788C6.54556 11.629 6.52827 11.6864 6.52823 11.7449V20.8882C6.52827 20.9467 6.54556 21.0042 6.57827 21.0543C6.61097 21.1045 6.65787 21.1456 6.71397 21.1732C6.77007 21.2009 6.83326 21.214 6.89682 21.2112C6.96038 21.2084 7.02192 21.1898 7.0749 21.1574Z" fill="#F9FAFB"/>
<path d="M5.7122 4.89497C7.06425 4.89497 8.16029 3.7992 8.16029 2.44749C8.16029 1.09578 7.06425 0 5.7122 0C4.36016 0 3.26412 1.09578 3.26412 2.44749C3.26412 3.7992 4.36016 4.89497 5.7122 4.89497Z" fill="#F9FAFB"/>
<path d="M16.3206 2.44749C16.3206 3.7992 15.2245 4.89497 13.8725 4.89497C12.5205 4.89497 11.4244 3.7992 11.4244 2.44749C11.4244 1.09578 12.5205 0 13.8725 0C15.2245 0 16.3206 1.09578 16.3206 2.44749Z" fill="#F9FAFB"/>
<path d="M46.5137 4.89497C47.8657 4.89497 48.9617 3.7992 48.9617 2.44749C48.9617 1.09578 47.8657 0 46.5137 0C45.1616 0 44.0656 1.09578 44.0656 2.44749C44.0656 3.7992 45.1616 4.89497 46.5137 4.89497Z" fill="#F9FAFB"/>
</svg>
