<svg width="20" height="20" viewBox="0 0 20 20" fill="none" xmlns="http://www.w3.org/2000/svg">
<path d="M13.7701 2.5C15.0317 2.51421 16.2325 3.04828 17.0928 3.97787C17.9531 4.90746 18.3978 6.15142 18.3245 7.38248L18.3234 12.58C18.3978 13.8486 17.9531 15.0925 17.0928 16.0221C16.2325 16.9517 15.0317 17.4858 13.763 17.5H6.21247C3.57119 17.5 1.66565 15.3654 1.66565 12.6175V7.38248C1.66565 4.63459 3.57119 2.5 6.21247 2.5H13.7701ZM13.756 3.77365H6.21247C4.30131 3.77365 2.93018 5.30963 2.93018 7.38248V12.6175C2.93018 14.6904 4.30131 16.2263 6.21247 16.2263H13.756C14.6717 16.2161 15.5433 15.8284 16.1678 15.1536C16.7923 14.4789 17.1151 13.5759 17.06 12.6175L17.0611 7.34491C17.1151 6.42406 16.7923 5.52111 16.1678 4.84635C15.5433 4.1716 14.6717 3.78393 13.756 3.77365ZM15.019 7.19864C15.2174 7.44827 15.199 7.80218 14.9892 8.02959L14.9205 8.09379L11.498 10.853C10.6668 11.5056 9.51822 11.5382 8.65152 10.9479L8.5171 10.8496L5.0717 8.09545C4.79818 7.8768 4.75242 7.47622 4.96949 7.20071C5.16683 6.95026 5.51345 6.88939 5.78034 7.04467L5.85779 7.09776L9.29883 9.84843C9.68463 10.1513 10.2135 10.1746 10.6163 9.92235L10.7142 9.85354L14.1303 7.09942C14.4029 6.87963 14.8008 6.92405 15.019 7.19864Z" fill="#9CA3AF"/>
</svg>
